<svg
  xmlns="http://www.w3.org/2000/svg"
  xmlns:xlink="http://www.w3.org/1999/xlink"
  aria-label="DirectBookings Logo"
  role="img"
  viewBox="0 0 512 512"
  width="512"
  height="512"
>
  <rect width="512" height="512" rx="15%" fill="#3b5998" />
  <path
    d="M259.5 113c-60.7 0-110 49.3-110 110s49.3 110 110 110 110-49.3 110-110-49.3-110-110-110zm0 190c-44.2 0-80-35.8-80-80s35.8-80 80-80 80 35.8 80 80-35.8 80-80 80zm0-130c-27.6 0-50 22.4-50 50s22.4 50 50 50 50-22.4 50-50-22.4-50-50-50zm0 70c-11 0-20-9-20-20s9-20 20-20 20 9 20 20-9 20-20 20z"
    fill="#fff"
  />
</svg>